<?xml version="1.0" encoding="UTF-8" standalone="no"?>
<!-- Created with Inkscape (http://www.inkscape.org/) -->

<svg
   xmlns:dc="http://purl.org/dc/elements/1.1/"
   xmlns:cc="http://creativecommons.org/ns#"
   xmlns:rdf="http://www.w3.org/1999/02/22-rdf-syntax-ns#"
   xmlns:svg="http://www.w3.org/2000/svg"
   xmlns="http://www.w3.org/2000/svg"
   xmlns:sodipodi="http://sodipodi.sourceforge.net/DTD/sodipodi-0.dtd"
   xmlns:inkscape="http://www.inkscape.org/namespaces/inkscape"
   version="1.1"
   id="svg2"
   width="351"
   height="214"
   viewBox="0 0 351 214"
   sodipodi:docname="Fife Brand.svg"
   inkscape:version="0.92.4 (5da689c313, 2019-01-14)">
  <metadata
     id="metadata8">
    <rdf:RDF>
      <cc:Work
         rdf:about="">
        <dc:format>image/svg+xml</dc:format>
        <dc:type
           rdf:resource="http://purl.org/dc/dcmitype/StillImage" />
        <dc:title></dc:title>
      </cc:Work>
    </rdf:RDF>
  </metadata>
  <defs
     id="defs6" />
  <sodipodi:namedview
     pagecolor="#ffffff"
     bordercolor="#666666"
     borderopacity="1"
     objecttolerance="10"
     gridtolerance="10"
     guidetolerance="10"
     inkscape:pageopacity="0"
     inkscape:pageshadow="2"
     inkscape:window-width="2736"
     inkscape:window-height="1699"
     id="namedview4"
     showgrid="false"
     inkscape:zoom="4.4112149"
     inkscape:cx="182.13318"
     inkscape:cy="116.74974"
     inkscape:window-x="-13"
     inkscape:window-y="-13"
     inkscape:window-maximized="1"
     inkscape:current-layer="svg2" />
  <path
     style="fill:#000000;stroke-width:1"
     d="m 163.84038,202.06206 c -1.31737,-1.56561 -1.34847,-1.74691 -1.09371,-6.375 0.37468,-6.80696 3.286,-14.56386 7.57492,-20.18266 1.70362,-2.23186 1.78583,-2.52351 1.78583,-6.33524 0,-3.97126 -0.31879,-4.66895 -1.48902,-3.2589 -0.33631,0.40522 -1.40139,0.88496 -2.36685,1.06608 -2.63213,0.49379 -5.04371,-0.84241 -6.02389,-3.3377 -0.5939,-1.51192 -0.98382,-1.92186 -1.57941,-1.66047 -0.43496,0.19089 -1.93884,0.59418 -3.34195,0.8962 -1.74498,0.3756 -3.19704,1.13269 -4.59517,2.39586 -2.21598,2.00209 -4.57875,2.70683 -7.33899,2.18901 -1.98535,-0.37246 -4.55663,-2.34242 -5.03831,-3.86006 -0.3086,-0.97231 -0.42988,-0.93213 -2.15172,0.71284 -2.32178,2.21813 -3.59759,2.86193 -5.66682,2.8596 -2.35832,-0.002 -4.71873,-1.62742 -6.47971,-4.46024 l -1.52011,-2.44536 -1.73564,1.17784 c -0.9546,0.64781 -2.79016,1.33213 -4.07903,1.52071 -1.73318,0.2536 -2.88503,0.83814 -4.4235,2.24483 -2.25477,2.06164 -4.60392,2.77536 -7.40516,2.24984 -1.98535,-0.37246 -4.55663,-2.34242 -5.03831,-3.86006 -0.3086,-0.97231 -0.42988,-0.93213 -2.151723,0.71284 -2.32425,2.22049 -3.59671,2.86147 -5.680565,2.86147 -3.739915,0 -5.209495,-2.83241 -4.725565,-9.10786 0.25092,-3.25388 0.171705,-3.98482 -0.458025,-4.22647 -1.202095,-0.46129 -2.87054,1.4993 -5.733095,6.73699 -3.18033,5.81912 -3.798875,6.59734 -5.24371,6.59734 -2.34847,0 -2.382,-0.3165 -2.0794,-19.62931 0.349745,-22.32172 1.201715,-27.94286 4.569645,-30.14961 2.16731,-1.42008 4.257345,-0.50502 5.75882,2.52131 1.095015,2.2071 1.22456,3.07281 1.15913,7.7462 -0.05311,3.7934 -0.42337,6.61945 -1.32703,10.12866 -1.255945,4.87727 -4.4107,12.87544 -6.302285,15.978 -0.760795,1.24785 -1.00711,2.51539 -1.00171,5.15475 l 0.0071,3.5 2.25331,-3.86692 c 4.28062,-7.346 7.532685,-9.50278 10.14147,-6.72585 0.96827,1.03068 1.087155,1.71023 1.087155,6.21428 0,5.17855 0.49618,6.62849 2.268315,6.62849 1.137615,0 4.173665,-2.96656 5.571095,-5.44357 2.595318,-4.60035 3.730188,-6.1135 5.305598,-7.07408 1.92963,-1.17655 2.78849,-1.23743 3.17693,-0.2252 0.18641,0.4858 -0.47346,1.43515 -1.84118,2.6489 -1.92812,1.71105 -2.15358,2.15534 -2.3606,4.65176 -0.20005,2.41235 -0.07,2.94471 1.03219,4.22611 1.05204,1.22307 1.63931,1.46608 3.543,1.46608 1.80851,0 2.56005,-0.27812 3.62253,-1.3406 l 1.3406,-1.34061 -1.64722,-1.38605 c -5.16966,-4.34998 -2.95826,-13.09789 2.56394,-10.1425 1.44155,0.7715 2.4248,3.48577 2.4248,6.6937 0,2.75989 0.004,2.76606 1.55,2.76606 1.09565,0 2.04762,-0.49762 3.24762,-1.69762 1.61467,-1.61467 1.67941,-1.8162 1.325,-4.125 -0.4706,-3.06571 -0.48521,-14.58692 -0.0229,-18.03805 l 0.34974,-2.61066 -6.59974,-0.13934 c -6.21987,-0.13131 -6.59965,-0.19688 -6.59965,-1.13933 0,-0.94477 0.3797,-1.00769 6.87418,-1.13911 l 6.87418,-0.1391 0.707,-1.69207 c 0.99497,-2.38131 2.55523,-3.77972 4.21715,-3.77972 1.71514,0 2.95315,1.25776 3.62188,3.67966 l 0.49643,1.79794 9.10459,0.1362 c 8.72585,0.13054 9.10459,0.1778 9.10459,1.1362 0,0.95849 -0.37876,1.00566 -9.125,1.13628 l -9.125,0.13628 v 1.78517 c 0,4.25406 -2.56983,14.19069 -5.00396,19.34855 -0.97992,2.07646 -1.05978,2.65901 -0.58256,4.25 0.89381,2.97989 3.1009,5.26038 5.09107,5.26038 1.34149,0 2.0457,-0.41171 3.46459,-2.02555 0.97947,-1.11406 2.22261,-2.89531 2.76253,-3.95834 2.60862,-5.13603 7.18073,-8.79582 8.07549,-6.4641 0.1665,0.43388 -0.63228,1.58875 -2.01569,2.91429 -2.13721,2.04781 -2.29147,2.36781 -2.29147,4.75345 0,3.61942 1.52686,5.36359 4.69534,5.36359 1.80852,0 2.56005,-0.27813 3.62253,-1.34061 l 1.34061,-1.3406 -1.64723,-1.38605 c -5.16966,-4.34998 -2.95825,-13.09789 2.56395,-10.1425 1.44155,0.7715 2.4248,3.48577 2.4248,6.6937 0,2.75989 0.004,2.76606 1.55,2.76606 1.73759,0 3.62833,-1.68261 6.29773,-5.60447 0.92232,-1.35508 2.44629,-2.78029 3.60507,-3.37146 2.70098,-1.37793 6.4696,-1.37234 8.22977,0.0122 2.49618,1.9635 1.16842,3.68802 -1.69818,2.20564 -4.10881,-2.12473 -8.98439,1.68749 -8.98439,7.0249 0,2.62845 0.75963,3.73319 2.56698,3.73319 2.01572,0 4.12728,-2.25725 4.86971,-5.20572 0.61811,-2.45475 1.0706,-2.95197 2.26819,-2.49241 0.66832,0.25646 0.79512,1.30476 0.79512,6.57352 v 6.26841 l 1.68463,-2.2063 c 2.69806,-3.53354 5.89607,-8.98318 6.85856,-11.6875 l 0.88978,-2.5 -1.09149,-0.17291 c -2.68292,-0.42502 -3.05484,-2.52198 -1.05311,-5.93767 1.07876,-1.84077 1.50583,-2.1733 2.625,-2.04393 1.10428,0.12765 1.46671,0.5607 2.08497,2.49123 0.70571,2.2036 0.86916,2.35484 2.86903,2.65474 3.50525,0.52565 3.80986,1.14996 3.41768,7.00464 -0.31318,4.67538 -0.25926,5.15182 0.72458,6.40258 2.0547,2.61212 5.39771,1.12417 8.47577,-3.7725 3.47311,-5.52512 4.99859,-7.34769 7.00798,-8.37281 2.66022,-1.35714 6.44134,-1.34194 8.18919,0.0329 2.44966,1.92691 1.18225,3.69517 -1.61261,2.24989 -2.09041,-1.08099 -3.62314,-0.98588 -5.62102,0.34879 -2.91426,1.94685 -4.38888,6.67449 -2.93135,9.3979 0.56959,1.06428 2.46845,1.27738 4.01365,0.45042 0.99869,-0.53449 2.96876,-3.93065 2.96876,-5.1178 0,-1.18907 1.23277,-2.43664 2.0847,-2.10973 0.54062,0.20746 0.92141,1.2154 1.14982,3.04352 0.43738,3.50069 1.9959,5.50228 3.9102,5.02182 3.24363,-0.8141 8.32426,-9.10452 9.38793,-15.31896 0.56311,-3.28995 1.08383,-4.11792 2.29701,-3.65238 0.49996,0.19185 0.677,1.60976 0.69656,5.57874 0.0255,5.16525 0.0511,5.2848 0.87421,4.0715 3.6807,-5.42569 6.76712,-6.56322 9.74041,-3.58993 1.55383,1.55383 1.60916,1.75192 1.60916,5.76106 0,3.72867 -0.14542,4.37164 -1.42652,6.30752 l -1.42653,2.15562 1.42653,-0.35606 c 2.2391,-0.55889 4.61533,-2.6498 6.73046,-5.92232 l 1.94606,-3.01091 0.005,-8.04748 c 0.005,-10.08416 0.76304,-20.82754 1.78561,-25.32343 1.28431,-5.64669 4.28878,-7.87919 7.35637,-5.46623 1.94552,1.53034 2.60137,4.09242 2.55785,9.99218 -0.057,7.73109 -2.28434,15.72684 -6.97622,25.04367 -1.55402,3.08589 -1.75565,3.90608 -1.626,6.61451 l 0.14739,3.09182 1.1859,-2.25 c 3.51946,-6.67741 6.98653,-10.00435 9.71268,-9.32013 1.82103,0.45705 2.36874,2.15412 2.4896,7.71406 0.11406,5.24729 0.43133,6.07815 2.32874,6.09841 1.31056,0.014 5.37912,-4.80429 7.00641,-8.29751 0.88261,-1.89466 1.87705,-4.00733 2.20988,-4.69483 0.40225,-0.83093 1.01778,-1.25 1.83596,-1.25 1.43759,0 1.43938,0.37422 0.0204,4.25 -1.0965,2.99483 -1.34156,7.00135 -0.52192,8.53287 0.32754,0.612 1.04562,0.96713 1.95556,0.96713 2.50354,0 4.18961,-2.7713 6.02693,-9.90615 0.4647,-1.80457 0.73418,-2.13069 1.65258,-2 1.25903,0.17916 1.27831,0.44959 0.6347,8.90615 l -0.39956,5.25 2.36847,-2.25 c 1.30265,-1.2375 3.3638,-3.76875 4.58033,-5.625 2.20122,-3.35877 3.40717,-4.12454 4.01225,-2.54773 0.53775,1.40137 -1.73393,4.86756 -6.71556,10.24676 l -4.7663,5.14669 0.3248,5.02378 c 0.33828,5.23247 -0.30115,13.73781 -1.25968,16.7555 -0.76334,2.40315 -2.76301,4.95978 -4.35624,5.56955 -1.99842,0.76485 -4.89017,-0.26012 -5.82296,-2.06392 -0.96881,-1.87347 -0.96397,-6.48521 0.0107,-10.22733 0.98103,-3.76642 4.35617,-10.6719 6.81629,-13.94601 1.6794,-2.23512 1.92004,-2.89698 1.92004,-5.28099 v -2.72562 l -1.1783,1.10696 c -2.51517,2.36287 -7.17487,1.62805 -8.44462,-1.33169 -0.31876,-0.74302 -0.64303,-1.44124 -0.72061,-1.55158 -0.0776,-0.11035 -1.25989,0.8459 -2.62734,2.125 -2.21161,2.0687 -2.73987,2.32563 -4.78159,2.32563 -4.10989,0 -5.69227,-3.09036 -4.98138,-9.72856 0.30629,-2.86009 0.23959,-3.30062 -0.54531,-3.60182 -1.17907,-0.45245 -2.82577,1.53679 -5.96201,7.20218 -2.97159,5.36795 -3.60041,6.1282 -5.06874,6.1282 -1.35947,0 -2.1901,-1.32157 -2.1901,-3.48453 v -1.55027 l -1.53497,1.74823 c -3.15246,3.59046 -7.35863,5.12052 -11.58482,4.21417 -2.52866,-0.5423 -5.88021,-3.14031 -5.88021,-4.55815 0,-1.26948 1.55919,-1.48817 2.73496,-0.38359 2.89878,2.72327 6.36632,-0.42431 6.44475,-5.85007 0.0296,-2.0489 -0.19702,-2.87532 -1.01201,-3.69031 -1.9485,-1.9485 -3.02908,-1.03067 -6.76811,5.74876 l -1.89959,3.44425 -0.005,6.05575 c -0.0113,13.84661 -1.46028,25.48648 -3.66975,29.47978 -2.04129,3.68934 -5.96257,4.26471 -7.8598,1.15326 -2.6837,-4.40124 0.49351,-19.93098 6.80241,-33.24921 2.03524,-4.29631 2.88947,-8.07807 1.82474,-8.07807 -0.22406,0 -0.7782,0.77759 -1.23141,1.72798 -1.0596,2.22201 -4.14277,5.63339 -5.92379,6.55439 -2.93601,1.51827 -6.86051,0.32294 -7.70816,-2.34776 -0.31093,-0.97966 -0.43682,-0.93487 -2.19353,0.78051 -3.73045,3.64269 -7.49468,2.84046 -9.81177,-2.09107 -0.0325,-0.0693 -0.99393,0.76326 -2.13641,1.85008 -3.39167,3.22641 -7.28566,3.69138 -9.80614,1.1709 -2.02102,-2.02102 -2.4888,-4.2098 -1.80527,-8.44696 0.32655,-2.02429 0.45223,-3.90948 0.2793,-4.1893 -0.17294,-0.27983 -1.06311,-0.50877 -1.97816,-0.50877 -1.57509,0 -1.68077,0.11367 -1.98373,2.13397 -0.37395,2.49369 -3.97838,8.80941 -8.57647,15.02777 l -3.21706,4.3507 -0.009,6.11878 c -0.0171,12.02529 -1.30485,18.96537 -4.038,21.76091 -1.28725,1.31662 -1.96076,1.60787 -3.71821,1.60787 -1.80386,0 -2.36253,-0.25706 -3.50216,-1.61143 z m 4.73978,-1.37399 c 2.14973,-1.15049 3.68648,-9.11619 3.42717,-17.76458 l -0.14991,-5 -2.37447,4.75 c -2.65926,5.3197 -3.98238,9.88805 -4.06797,14.04559 -0.0775,3.76589 1.00597,5.12457 3.16518,3.96899 z m 59.60317,-4.01458 c 1.59427,-3.35617 2.95359,-14.05405 2.89071,-22.75 l -0.0326,-4.5 -1.77716,4.5 c -3.56357,9.02341 -5.95131,21.88313 -4.48475,24.15359 0.75582,1.17011 2.52837,0.43916 3.40373,-1.40359 z m 59.01425,-1.375 c 1.84528,-2.16686 2.90847,-7.82278 2.89016,-15.375 -0.0113,-4.65584 -0.0668,-4.93117 -0.80647,-4 -1.68584,2.12232 -4.80411,9.52332 -5.56707,13.21309 -0.67417,3.26035 -0.69644,4.11335 -0.14235,5.45105 0.75131,1.81381 2.40958,2.13893 3.62573,0.71086 z m -173.19244,-40.353 c -0.89819,-2.6978 -1.89772,-2.89852 -1.89772,-0.3811 0,1.28833 0.39086,2.4734 1.125,3.41097 l 1.125,1.43673 0.14772,-1.26056 c 0.0812,-0.69331 -0.14375,-2.13602 -0.5,-3.20604 z m 38.5,0 c -0.8982,-2.6978 -1.89772,-2.89852 -1.89772,-0.3811 0,1.28833 0.39086,2.4734 1.125,3.41097 l 1.125,1.43673 0.14772,-1.26056 c 0.0812,-0.69331 -0.14376,-2.13602 -0.5,-3.20604 z m -24.9787,-6.022 c 1.3653,-4.10483 2.58098,-10.23228 2.58098,-13.00911 v -2.30126 l -1.875,0.15518 c -1.80722,0.14958 -1.88721,0.23652 -2.21294,2.40519 -0.52448,3.492 -0.48475,16.77496 0.0486,16.225 0.25333,-0.26125 0.90962,-1.825 1.45843,-3.475 z m 57.25565,0.51601 c 0.15491,-0.40369 0.0665,-0.86697 -0.19651,-1.0295 -0.26299,-0.16255 -0.47816,-0.18815 -0.47816,-0.0569 0,0.13123 -0.13657,0.59451 -0.3035,1.0295 -0.16692,0.435 -0.0785,0.7909 0.19651,0.7909 0.275,0 0.62674,-0.3303 0.78166,-0.73399 z M 81.831637,141.8582 c 3.402345,-10.13006 3.648145,-21.63171 0.47198,-22.08516 -2.26064,-0.32273 -3.18732,4.68154 -3.499925,18.90045 l -0.24734,11.25 0.984445,-2.08783 c 0.54144,-1.1483 1.57232,-3.83816 2.29084,-5.97746 z m 177.065233,2.79448 c 4.34377,-11.2182 5.03241,-24.97919 1.25003,-24.97919 -1.30448,0 -2.33772,3.41474 -3.02582,10 -0.49548,4.74183 -0.71853,20.37153 -0.28452,19.93753 0.12602,-0.12603 1.05316,-2.35727 2.06031,-4.95834 z M 130.10742,130.51905 c 0,-0.35994 -0.30957,-1.07779 -0.68792,-1.59522 -0.65196,-0.8916 -0.73104,-0.85739 -1.51284,0.65444 l -0.82492,1.59522 h 1.51284 c 0.91323,0 1.51284,-0.25939 1.51284,-0.65444 z M 28.072091,168.02078 c -3.409884,-0.96562 -6.822319,-3.15943 -8.485271,-5.45508 -1.135625,-1.56768 -1.348415,-2.19758 -0.917697,-2.71656 0.904714,-1.09012 1.672891,-0.79765 3.333964,1.26933 4.519867,5.62437 14.916376,6.23805 19.211172,1.13397 2.752927,-3.27167 3.47444,-6.44582 3.882206,-17.07895 0.405065,-10.56268 0.914073,-12.97489 3.544792,-16.79895 1.616462,-2.34971 3.722542,-3.90152 4.756554,-3.50473 1.210238,0.46441 0.786099,2.03338 -1.023938,3.78773 -3.331763,3.22927 -3.865197,5.16501 -4.313481,15.6528 -0.467378,10.93452 -1.213097,14.49982 -3.837688,18.34813 -3.258086,4.77716 -10.1438,7.06335 -16.150613,5.36231 z M 21.10418,150.23859 c -3.546329,-1.17007 -6.088831,-3.30874 -7.804758,-6.5651 -1.489125,-2.82596 -1.28646,-8.49886 0.435247,-12.18318 6.969095,-14.91332 37.359515,-21.9202 52.248833,-12.04661 2.93575,1.9468 5.15437,4.71688 6.40896,8.00196 1.19767,3.13606 0.813985,10.16632 -0.71623,13.12357 -2.523135,4.87614 -8.01702,8.49916 -14.56203,9.60311 -4.471102,0.75415 -6.69515,0.53295 -6.926887,-0.68894 -0.24872,-1.31144 0.751983,-1.79336 3.742435,-1.80226 3.503537,-0.0104 8.695017,-1.69596 11.230472,-3.64624 4.374515,-3.36488 6.340765,-9.53173 4.76613,-14.94828 -1.53799,-5.2905 -6.216355,-8.96013 -13.662055,-10.71629 -4.634265,-1.09305 -14.813201,-0.69915 -20.40688,0.78969 -12.209372,3.24971 -20.750001,11.01376 -20.750001,18.86325 0,8.843 9.334501,12.72527 18.35549,7.63414 2.761256,-1.55836 4.144511,-1.65016 4.144511,-0.27506 0,0.91951 -2.595911,2.91629 -5.25,4.03832 -2.229579,0.94257 -9.314661,1.45754 -11.253237,0.81792 z M 312.74214,97.586931 c -0.61341,-0.30667 -1.62591,-1.59391 -2.25,-2.86052 -1.0907,-2.21357 -1.14442,-2.93269 -1.38472,-18.53432 l -0.25,-16.23139 -1.68199,2.12531 c -4.06501,5.1364 -9.29354,5.2841 -11.98841,0.33866 -0.64623,-1.18591 -0.79492,-2.72312 -0.708,-7.31948 0.12167,-6.43373 0.64283,-8.60001 2.00486,-8.33361 0.78206,0.15297 0.87354,0.90995 0.87354,7.22843 0,6.23666 0.11079,7.18063 0.9525,8.11552 2.23276,2.47998 5.66488,0.51892 9.03529,-5.16263 l 1.76221,-2.97058 0.0136,-7.27942 c 0.0173,-9.24917 0.73053,-20.98471 1.51888,-24.99185 1.03337,-5.25251 3.76383,-7.97432 6.67091,-6.64977 1.82543,0.83172 2.78447,2.61207 3.39642,6.30512 1.17914,7.11589 -1.32178,18.29564 -6.31826,28.24423 l -2.28155,4.54288 v 6.02492 6.02492 l 2.0272,-1.13993 c 4.24054,-2.38452 7.87305,-6.2429 9.98468,-10.60552 2.49631,-5.15735 3.86264,-6.51169 6.56937,-6.51169 1.61597,0 2.27766,0.29388 3.27663,1.45525 1.05798,1.22997 1.21623,1.82479 1.02236,3.84255 -0.25781,2.683 -1.9835,5.34323 -4.38731,6.76319 -0.82111,0.48504 -1.49293,1.03275 -1.49293,1.21712 0,0.18437 0.80937,0.7193 1.79861,1.18872 3.59603,1.70643 7.26436,-0.418 10.33706,-5.9865 0.90954,-1.64832 2.03928,-3.0712 2.51053,-3.16195 3.68598,-0.70986 -1.7878,9.17801 -6.28637,11.35573 -2.53492,1.22713 -5.81294,1.36166 -7.8251,0.32113 -1.58693,-0.82063 -3.8104,-3.27349 -4.2646,-4.70455 -0.25493,-0.80319 -0.75729,-0.48674 -3.40955,2.14776 -1.71082,1.69936 -4.30701,3.77424 -5.7693,4.61084 l -2.65872,1.52111 1.21747,1.45344 c 1.86748,2.22942 4.27755,7.34694 5.09718,10.8233 0.86515,3.66939 0.96832,9.33391 0.21914,12.03179 -1.05828,3.81099 -4.61409,6.12044 -7.33163,4.76179 z m 4.04255,-4.56165 c 2.07995,-4.25787 0.57545,-13.73543 -3.12391,-19.67898 l -1.45983,-2.34543 -0.37064,2.96131 c -0.48407,3.86773 0.44207,18.05566 1.29635,19.8592 0.92674,1.95651 2.47834,1.61884 3.65803,-0.7961 z m 13.77093,-36.61919 c 1.08609,-1.23699 1.5518,-2.27851 1.5518,-3.47049 0,-1.94303 -0.5675,-2.47907 -2.1927,-2.07117 -1.44995,0.36391 -2.3073,2.25252 -2.3073,5.08258 0,2.77399 0.80556,2.89942 2.9482,0.45908 z m -14.15367,-19.40139 c 2.49622,-9.1355 2.09799,-19.33121 -0.75505,-19.33121 -2.10649,0 -3.52871,9.40078 -3.47964,23 l 0.0261,7.25 1.47837,-3.16879 c 0.81311,-1.74284 2.04168,-5.23034 2.73017,-7.75 z M 173.9667,65.285181 c -0.76489,-0.47393 -1.85899,-1.82883 -2.43132,-3.0109 l -1.0406,-2.1492 -1.74387,2.03732 c -2.84249,3.32081 -6.23503,4.39722 -9.00597,2.85748 -1.447,-0.80406 -3.46594,-3.56148 -4.1703,-5.69571 l -0.55708,-1.68798 -1.95205,2.726 c -2.30659,3.22111 -4.65362,4.8113 -7.10122,4.8113 -2.51136,0 -3.24113,-0.38273 -4.63166,-2.42908 -0.67387,-0.99168 -1.22521,-1.52724 -1.22521,-1.19013 0,0.96322 -4.00892,3.62001 -5.45002,3.61184 -1.89996,-0.0108 -3.61963,-1.03412 -4.87956,-2.90373 l -1.1096,-1.64654 -0.83214,1.27001 c -1.25722,1.91876 -3.82258,3.28763 -6.16125,3.28763 -1.6759,0 -2.44741,-0.3459 -4.09836,-1.83743 -1.11859,-1.01058 -2.37016,-2.48786 -2.78126,-3.28284 l -0.74746,-1.44542 -1.70458,2.23243 c -3.50641,4.5922 -7.78983,5.69083 -10.67644,2.73834 -0.85763,-0.87721 -1.55933,-1.79447 -1.55933,-2.03836 0,-0.2439 -0.557948,0.21963 -1.239878,1.03006 -2.605215,3.09612 -6.629185,3.34162 -8.979985,0.54785 -1.06083,-1.26072 -1.28014,-2.03299 -1.28014,-4.50783 0,-5.97509 3.99995,-10.4391 9.35017,-10.43493 2.837483,0.002 5.913703,1.58929 5.445493,2.80944 -0.16262,0.42376 -0.29566,0.86457 -0.29566,0.97958 0,0.47981 -1.51732,0.15266 -2.85641,-0.61587 -3.167463,-1.81788 -7.522368,0.66106 -8.673873,4.93743 -0.918865,3.4124 0.151925,5.88755 2.547055,5.88755 1.713385,0 3.702895,-2.19833 4.55083,-5.02847 0.32683,-1.09088 0.895325,-2.23329 1.26332,-2.53869 1.033358,-0.85762 2.169078,0.39609 2.169078,2.39444 0,2.65423 1.22679,5.08509 2.76057,5.47005 1.66839,0.41874 3.35936,-0.7752 5.69494,-4.021 l 1.7055,-2.37017 0.0445,-12.20308 0.0445,-12.20308 h -6.32151 c -4.90945,0 -6.380573,-0.15392 -6.585933,-0.68908 -0.564735,-1.47166 0.832573,-1.81092 7.458523,-1.81092 h 6.60109 l 0.55898,-1.60349 c 0.85578,-2.45489 2.46431,-3.89651 4.34765,-3.89651 1.86671,0 3.00614,1.2551 3.49237,3.84693 l 0.30605,1.6314 9.32138,0.13583 c 8.94278,0.13032 9.32139,0.17645 9.32139,1.13584 0,0.9596 -0.37868,1.00549 -9.375,1.13603 l -9.375,0.13603 v 2.51005 c 0,4.75218 -3.16972,16.47281 -5.35817,19.8128 -0.69718,1.06403 -0.68994,1.38487 0.0765,3.39184 0.83366,2.1829 3.72352,5.26325 4.93778,5.26325 1.67462,0 4.29771,-2.65623 6.17204,-6.25 2.80769,-5.38335 6.38682,-8.24324 10.32164,-8.24744 2.92607,-0.003 5.35017,1.14136 5.35017,2.52597 0,1.37735 -1.03575,1.65377 -2.78288,0.74269 -0.80687,-0.42078 -2.02958,-0.76561 -2.71708,-0.76627 -4.29701,-0.004 -8.12795,6.94832 -5.72165,10.38379 1.86931,2.66882 5.62011,0.37469 6.83913,-4.18306 0.31997,-1.19633 0.92474,-2.30676 1.34395,-2.46763 0.99976,-0.38365 2.03857,1.08065 2.03857,2.87357 0,2.09078 1.26034,4.74493 2.42936,5.11596 1.13304,0.35961 3.37587,-0.62843 4.65662,-2.05139 0.4585,-0.50941 1.61635,-2.3136 2.57301,-4.00932 l 1.73937,-3.08313 -0.49405,-4.16687 c -0.94163,-7.94181 0.22052,-22.01859 2.34615,-28.41826 1.05338,-3.17142 3.62497,-5.99861 5.4563,-5.99861 5.6434,0 6.46241,12.44002 1.70629,25.91713 -0.841,2.38308 -2.53402,6.33405 -3.76228,8.77993 -2.1509,4.2832 -2.21236,4.5298 -1.66786,6.6922 1.29431,5.14017 3.99904,7.95835 6.40315,6.67171 3.04319,-1.62866 6.37859,-7.41965 6.89318,-11.96808 0.37339,-3.30035 1.23594,-4.6177 2.39412,-3.6565 0.52257,0.43369 0.62027,1.93691 0.43628,6.71284 -0.19548,5.07446 -0.0921,6.4344 0.58948,7.75239 0.67779,1.31069 1.12521,1.59838 2.48582,1.59838 2.466,0 5.39262,-3.20045 8.14182,-8.90365 2.23915,-4.64508 4.08945,-6.58969 6.27471,-6.59448 2.88398,-0.006 5.20154,3.12448 4.61748,6.23779 -0.31823,1.69633 -3.96848,6.4693 -4.6383,6.06492 -0.18186,-0.10979 -0.61439,0.10744 -0.9612,0.48274 -0.51447,0.55674 -0.42243,0.81363 0.5,1.39545 4.10002,2.58611 8.3219,0.34653 11.62145,-6.16482 1.29101,-2.54769 2.18265,-3.06499 3.19028,-1.85088 1.26391,1.52292 -4.17061,9.38354 -7.6186,11.01972 -2.27414,1.07915 -5.66973,1.03026 -7.82038,-0.1126 -1.56819,-0.83334 -3.58454,-3.13781 -4.13263,-4.72316 -0.11518,-0.33314 -1.27348,0.57825 -2.5987,2.04475 -3.71513,4.11116 -6.448,5.04597 -9.40159,3.21591 z m 16.46428,-7.84439 c 1.46771,-1.02802 2.82698,-4.09943 2.46048,-5.55968 -0.41008,-1.63387 -2.47769,-1.64 -3.54537,-0.0105 -1.37029,2.09134 -1.6146,6.30289 -0.36562,6.30289 0.22244,0 0.87517,-0.32972 1.45051,-0.7327 z m -72.577,-14.5173 c 0.62327,-2.475 1.29069,-6.01875 1.48313,-7.875 l 0.3499,-3.375 h -1.9773 c -1.83035,0 -2.0016,0.12076 -2.30445,1.625 -0.5755,2.85861 -0.95671,13.62511 -0.55445,15.6597 l 0.38856,1.9653 0.74068,-1.75 c 0.40738,-0.9625 1.25064,-3.775 1.87393,-6.25 z m 41.01894,0.51841 c 2.79485,-6.7845 4.27226,-13.20003 4.27642,-18.57001 0.004,-4.94394 -0.66637,-7.1984 -2.13995,-7.1984 -1.23058,0 -2.61121,3.23115 -3.68269,8.61874 -0.97122,4.88345 -1.63522,22.9292 -0.81434,22.13126 0.28291,-0.275 1.34516,-2.51672 2.36056,-4.98159 z m -39.77315,-15.14341 c -0.004,-0.48125 -0.20041,-1.17917 -0.43598,-1.55093 -0.33561,-0.5296 -0.60454,-0.42434 -1.24235,0.48626 -1.10791,1.58175 -1.02746,1.93967 0.43598,1.93967 0.86006,0 1.24761,-0.27296 1.24235,-0.875 z m 129.68099,37.36196 c -7.93421,-1.43131 -13.97365,-5.71906 -16.87445,-11.98015 -1.31134,-2.83037 -1.24088,-4.00681 0.23995,-4.00681 0.63672,0 1.33751,0.85745 2.21261,2.70727 3.28029,6.93396 10.54859,10.79273 20.32899,10.79273 8.08679,0 13.35997,-1.86844 17.14058,-6.07338 2.6796,-2.98036 4.27898,-7.45793 4.27898,-11.97929 v -2.94733 h -1.92841 c -1.06062,0 -4.91324,0.24984 -8.56137,0.5552 -5.49843,0.46023 -6.70669,0.43885 -7.06394,-0.125 -1.18214,-1.8658 0.22335,-2.29434 9.49318,-2.89457 4.22921,-0.27384 7.77068,-0.5791 7.86994,-0.67836 0.0993,-0.0993 0.3951,-2.18901 0.65743,-4.64388 0.26232,-2.45486 0.62428,-5.16498 0.80437,-6.02247 l 0.32743,-1.55908 -3.42431,-0.62799 c -1.88338,-0.34539 -8.38105,-1.71177 -14.43928,-3.03641 -16.10842,-3.52212 -20.15899,-4.13383 -25.51704,-3.85357 -7.89423,0.41292 -13.40937,3.87573 -14.07485,8.83721 -0.38565,2.87524 0.13159,4.32688 2.43028,6.82067 2.11093,2.29008 2.29792,3.72825 0.48475,3.72825 -1.41043,0 -4.82259,-4.12275 -5.54365,-6.69813 -1.16628,-4.16551 0.54652,-8.7128 4.38439,-11.64003 5.64364,-4.30455 14.31775,-4.91627 28.10108,-1.98175 20.21282,4.30336 24.86342,5.24915 26.5744,5.40438 1.69919,0.15417 1.93939,-0.006 3.5,-2.33447 3.09452,-4.61702 8.56595,-7.25 15.06579,-7.25 4.11739,0 6.57672,1.00223 7.67609,3.12816 1.13609,2.19696 0.52801,4.44443 -1.76236,6.51364 -3.09943,2.80015 -6.22584,3.60885 -13.93363,3.60418 -5.47777,-0.003 -6.66903,0.12699 -6.85604,0.75 -0.45831,1.52677 -1.25681,7.30996 -1.26047,9.12902 l -0.004,1.875 h 6.68878 c 5.3356,0 6.8147,0.15172 7.31122,0.75 0.49887,0.6011 0.48805,0.91193 -0.0545,1.56566 -0.57505,0.69289 -1.37175,0.76683 -5.29305,0.49119 -2.53886,-0.17847 -5.52429,-0.17926 -6.63428,-0.002 l -2.01817,0.32275 v 2.58105 c 0,1.41958 -0.33643,3.87268 -0.74762,5.45135 -2.61055,10.02261 -9.69551,15.04943 -21.95186,15.57501 -2.77779,0.11911 -6.21002,0.007 -7.62718,-0.24825 z m 46.56508,-41.70846 c 2.83886,-0.85437 5.26158,-2.99437 5.26158,-4.64756 0,-0.89306 -0.45795,-1.37331 -1.87352,-1.96477 -4.68897,-1.95918 -13.63565,1.21494 -16.27975,5.77577 l -0.90327,1.55806 h 5.6988 c 3.52464,0 6.61343,-0.27527 8.09616,-0.7215 z M 22.107417,65.016881 c -10.14868,-2.31381 -15.1831046,-11.3281 -10.70393,-19.1657 2.134498,-3.73491 6.878931,-6.73386 11.769295,-7.43934 2.530269,-0.36501 7.297919,0.43401 9.684635,1.62308 2.140154,1.06623 5.75,4.68133 5.75,5.75836 0,1.80698 -1.451714,1.50744 -3.72845,-0.7693 -2.58469,-2.58469 -5.714791,-3.85049 -9.52155,-3.85049 -8.899948,0 -15.197618,7.74211 -11.767246,14.46619 3.774069,7.39779 15.201548,9.26052 25.864666,4.21606 3.477595,-1.64517 8.872436,-6.7047 11.111008,-10.42041 3.893691,-6.46298 7.373012,-18.81076 7.963537,-28.26184 0.32264,-5.16368 0.348375,-5.25 1.565135,-5.25 1.38036,0 2.133715,1.84639 11.371645,27.87065 2.41519,6.80386 4.50432,12.37261 4.642505,12.375 0.13819,0.002 0.78028,-3.5394 1.426865,-7.87065 3.77756,-25.30443 6.058845,-31.32123 13.25887,-34.96976 3.18505,-1.61398 7.80295,-2.1223 8.7637,-0.96466 1.070118,1.28941 -0.15708,2.30942 -2.77853,2.30942 -2.73297,0 -6.52977,1.84527 -8.436945,4.10042 -2.049865,2.42387 -3.623865,6.18624 -4.75366,11.36278 -1.170875,5.36474 -3.60328,20.22564 -4.70682,28.75652 -1.17976,9.12009 -2.21295,8.98812 -5.428335,-0.69335 -1.264485,-3.80736 -4.503465,-13.02289 -7.19773,-20.47896 l -4.898665,-13.5565 -1.07007,5.65206 c -1.310975,6.92452 -4.1438,15.5498 -6.478934,19.7268 -2.203153,3.94093 -6.442762,8.54116 -10.158134,11.02219 -5.745388,3.83662 -15.446907,5.84126 -21.542862,4.45143 z M 171.21867,40.395131 c -1.40093,-0.98125 -1.51052,-3.70533 -0.19688,-4.89415 2.09463,-1.89562 5.08563,-0.39088 5.08563,2.55852 0,1.6106 -1.44836,3.11399 -3,3.11399 -0.42762,0 -1.27756,-0.35026 -1.88875,-0.77836 z m 2.79357,-2.59664 c -0.0927,-0.48125 -0.49985,-0.875 -0.90482,-0.875 -0.40497,0 -0.81214,0.39375 -0.90482,0.875 -0.11823,0.61392 0.15174,0.875 0.90482,0.875 0.75307,0 1.02304,-0.26108 0.90482,-0.875 z m 120.91261,2.33871 c -1.58322,-1.24536 -1.71285,-3.06829 -0.31743,-4.46371 1.9665,-1.9665 5.5,-0.54429 5.5,2.21371 0,1.21815 -2.0453,3.28629 -3.25,3.28629 -0.33833,0 -1.20799,-0.46633 -1.93257,-1.03629 z m 2.81478,-1.7626 c 0.46937,-0.46936 -0.16943,-1.70111 -0.88221,-1.70111 -0.71279,0 -1.35159,1.23175 -0.88221,1.70111 0.16438,0.16439 0.56137,0.29889 0.88221,0.29889 0.32083,0 0.71783,-0.1345 0.88221,-0.29889 z"
     id="path4520"
     inkscape:connector-curvature="0" />
</svg>
